<?xml version="1.0" encoding="UTF-8"?>
<!DOCTYPE svg PUBLIC "-//W3C//DTD SVG 1.1//EN" "http://www.w3.org/Graphics/SVG/1.1/DTD/svg11.dtd">
<!-- Creator: CorelDRAW X7 -->
<svg xmlns="http://www.w3.org/2000/svg" xml:space="preserve" width="1569px" height="480px" version="1.1" style="shape-rendering:geometricPrecision; text-rendering:geometricPrecision; image-rendering:optimizeQuality; fill-rule:evenodd; clip-rule:evenodd"
viewBox="0 0 1569 480"
 xmlns:xlink="http://www.w3.org/1999/xlink">
 <defs>
  <style type="text/css">
   <![CDATA[
    .fil2 {fill:#757475}
    .fil3 {fill:#09589E}
    .fil1 {fill:#7AC043}
    .fil0 {fill:#EE4035}
   ]]>
  </style>
 </defs>
 <g id="Layer_x0020_1">
  <metadata id="CorelCorpID_0Corel-Layer"/>
  <g id="_2426086021952">
   <path class="fil0" d="M170 21l47 -20c8,-3 20,1 26,9l21 27c8,-1 16,-2 24,-2 9,0 17,1 25,2l21 -27c6,-8 18,-12 26,-9l47 20c8,3 13,14 12,24l-4 34c13,10 24,22 34,35l34 -5c10,-1 21,5 25,12l19 48c4,8 0,19 -8,26l-27 21c1,8 1,16 1,24 0,8 0,16 -1,24l27 21c8,7 12,18 8,26l-19 48c-4,7 -15,13 -25,12l-34 -5c-10,13 -21,25 -34,35l4 34c1,10 -4,21 -12,24l-47 20c-8,3 -20,-1 -26,-9l-21 -27c-8,1 -16,2 -25,2 -9,0 -18,-1 -28,-2 2,-1 3,-3 5,-4l52 -50c70,-13 124,-75 124,-149 0,-84 -69,-152 -153,-152 -39,0 -74,15 -101,39l-38 -37c4,-4 8,-7 13,-11l-4 -34c-1,-10 4,-21 12,-24z"/>
   <path class="fil1" d="M125 360l59 -55c11,-11 24,-16 37,-15 13,-1 25,4 37,15l64 60 -64 61c-12,11 -24,16 -37,14 -13,2 -26,-3 -37,-14l-59 -56 82 0c2,9 10,16 20,16 11,0 21,-9 21,-21 0,-11 -10,-20 -21,-20 -10,0 -18,6 -20,15l-82 0zm-21 -15l-82 -80c-16,-15 -24,-33 -22,-50 -2,-17 6,-35 22,-50l89 -86 89 86c16,15 24,33 22,50 2,17 -6,35 -22,50l-82 80 0 -111c12,-3 21,-14 21,-27 0,-15 -13,-28 -28,-28 -15,0 -28,13 -28,28 0,13 9,24 21,27l0 111z"/>
   <path class="fil2" d="M623 435l0 -52 25 0c6,0 11,1 14,2 3,0 5,2 7,5 2,2 3,5 3,8 0,4 -2,7 -4,9 -3,3 -7,5 -12,5 2,2 5,3 6,5 2,1 4,4 7,8l7 10 -14 0 -9 -11c-3,-4 -5,-7 -6,-8 -1,-1 -2,-2 -4,-2 -1,0 -3,0 -6,0l-2 0 0 21 -12 0zm12 -30l9 0c5,0 9,0 10,0 2,-1 3,-2 4,-3 1,-1 1,-2 1,-4 0,-1 0,-3 -2,-4 -1,-1 -2,-2 -4,-2 -1,0 -4,0 -9,0l-9 0 0 13zm50 30l0 -52 45 0 0 9 -33 0 0 12 30 0 0 8 -30 0 0 14 34 0 0 9 -46 0zm58 0l0 -52 20 0c7,0 12,0 14,1 4,1 6,2 9,5 2,3 3,6 3,10 0,3 0,6 -2,8 -1,2 -3,4 -5,5 -2,2 -4,2 -6,3 -3,0 -7,1 -13,1l-7 0 0 19 -13 0zm13 -43l0 15 6 0c5,0 8,-1 10,-1 1,-1 3,-1 3,-3 1,-1 2,-2 2,-4 0,-2 -1,-3 -2,-4 -1,-2 -3,-2 -5,-3 -1,0 -4,0 -9,0l-5 0zm46 -9l12 0 0 28c0,5 0,8 0,9 1,2 2,4 4,5 2,2 4,2 8,2 3,0 6,0 7,-2 2,-1 3,-2 4,-4 0,-2 0,-5 0,-9l0 -29 12 0 0 28c0,6 0,10 -1,13 0,2 -2,5 -3,6 -2,2 -5,4 -7,5 -3,1 -7,1 -12,1 -6,0 -10,0 -13,-2 -3,-1 -5,-2 -7,-4 -2,-2 -3,-4 -3,-6 -1,-3 -1,-7 -1,-13l0 -28zm62 0l24 0c5,0 9,0 11,1 2,0 4,1 6,2 2,1 3,2 5,4 1,2 1,4 1,6 0,3 0,5 -2,7 -1,2 -3,4 -6,5 4,0 7,2 8,4 2,3 3,5 3,8 0,3 0,5 -1,7 -2,2 -3,4 -6,5 -2,2 -5,3 -8,3 -2,0 -7,0 -14,0l-21 0 0 -52zm12 9l0 12 8 0c5,0 8,0 9,0 2,-1 4,-1 5,-2 1,-1 2,-3 2,-4 0,-2 -1,-3 -2,-4 -1,-1 -2,-2 -4,-2 -2,0 -5,0 -11,0l-7 0zm0 21l0 13 12 0c4,0 7,0 8,0 2,0 3,-1 4,-2 1,-1 2,-2 2,-4 0,-2 0,-3 -1,-4 -1,-1 -2,-2 -4,-3 -2,0 -5,0 -11,0l-10 0zm51 22l0 -51 12 0 0 42 30 0 0 9 -42 0zm53 0l0 -52 12 0 0 52 -12 0zm26 0l0 -52 12 0 0 23 25 -23 16 0 -23 20 24 32 -15 0 -17 -24 -10 9 0 15 -12 0zm86 0l0 -52 12 0 0 52 -12 0zm26 0l0 -52 12 0 24 35 0 -35 11 0 0 52 -12 0 -24 -34 0 34 -11 0zm62 -52l22 0c5,0 9,0 12,1 3,1 6,3 9,5 2,2 4,5 6,8 1,4 1,8 1,13 0,4 0,8 -1,11 -2,4 -4,7 -7,9 -2,2 -5,3 -8,4 -3,1 -6,1 -11,1l-23 0 0 -52zm12 9l0 34 9 0c4,0 6,0 8,0 2,0 3,-1 5,-2 1,-1 2,-3 3,-5 1,-3 1,-6 1,-10 0,-4 0,-7 -1,-9 -1,-2 -2,-4 -4,-5 -1,-1 -3,-2 -5,-3 -2,0 -5,0 -10,0l-6 0zm49 18c0,-6 1,-10 2,-14 2,-3 4,-5 6,-7 2,-2 5,-4 8,-5 3,-1 8,-2 13,-2 8,0 15,3 21,7 5,5 8,12 8,20 0,9 -3,15 -8,20 -5,5 -12,7 -21,7 -9,0 -16,-2 -21,-7 -6,-5 -8,-11 -8,-19zm12 -1c0,6 2,11 5,14 3,3 7,4 12,4 5,0 8,-1 12,-4 3,-3 4,-8 4,-14 0,-6 -1,-10 -4,-13 -3,-3 -7,-5 -12,-5 -5,0 -9,2 -12,5 -3,3 -5,7 -5,13zm58 26l0 -52 11 0 25 35 0 -35 11 0 0 52 -12 0 -24 -34 0 34 -11 0zm62 0l0 -52 45 0 0 9 -33 0 0 12 30 0 0 8 -30 0 0 14 34 0 0 9 -46 0zm55 -17l12 -1c1,4 2,6 4,8 2,1 5,2 9,2 4,0 7,0 9,-2 2,-1 3,-3 3,-5 0,-1 -1,-2 -1,-3 -1,-1 -3,-2 -5,-2 -1,-1 -4,-1 -9,-3 -7,-1 -11,-3 -14,-5 -4,-3 -6,-6 -6,-10 0,-3 1,-5 3,-8 2,-2 4,-4 7,-5 4,-1 8,-2 12,-2 8,0 13,2 17,5 4,2 6,6 6,11l-12 0c0,-2 -2,-4 -3,-5 -2,-1 -4,-2 -8,-2 -3,0 -6,1 -8,2 -1,1 -2,2 -2,3 0,1 1,2 2,3 1,1 5,3 11,4 6,1 10,2 13,3 3,2 5,4 7,6 1,2 2,5 2,8 0,3 -1,6 -3,8 -2,3 -5,5 -8,6 -4,2 -8,2 -13,2 -8,0 -13,-1 -17,-4 -5,-3 -7,-8 -8,-14zm61 17l0 -52 12 0 0 52 -12 0zm80 0l-13 0 -5 -12 -24 0 -5 12 -13 0 23 -52 13 0 24 52zm-22 -20l-8 -20 -9 20 17 0z"/>
   <path class="fil3" d="M708 174l-26 0c0,-4 -5,-14 -14,-32 -10,-19 -17,-29 -21,-29l-2 0c0,15 0,36 1,61l-23 0c0,-20 1,-43 1,-68 0,-24 -1,-45 -1,-62l23 0c-1,19 -1,36 -1,52l1 0c3,0 9,-8 19,-25 9,-15 14,-24 14,-27l24 0c0,2 -5,11 -15,25 -10,15 -18,24 -22,28l0 2c5,3 14,16 26,39 11,21 16,33 16,36zm-8 67c0,16 -5,27 -14,35 -10,7 -22,11 -36,11 -2,0 -4,0 -5,0 0,12 0,29 1,49l-23 0c0,-19 1,-41 1,-67 0,-24 -1,-45 -1,-62l14 0c2,0 6,0 11,0 6,-1 11,-1 15,-1 11,0 19,3 26,9 7,6 11,14 11,26zm-21 5c0,-14 -8,-21 -23,-21 -4,0 -8,0 -12,1 0,13 1,27 1,43 1,0 2,0 4,0 20,0 30,-7 30,-23zm104 33c0,3 0,8 0,13l-53 1c1,8 4,14 8,19 5,5 11,7 18,7 8,0 17,-1 26,-4l-2 19c-7,3 -16,5 -27,5 -14,0 -25,-5 -33,-14 -7,-10 -11,-21 -11,-35 0,-14 4,-26 11,-37 7,-10 17,-15 29,-15 12,0 20,4 26,11 6,8 8,18 8,30zm-19 -1c0,-15 -5,-23 -16,-23 -10,0 -16,8 -18,24l34 -1zm88 -36l-5 23c-4,-2 -8,-3 -12,-3 -8,0 -13,4 -16,13 0,27 0,47 1,61l-22 0c1,-20 1,-36 1,-49 0,-15 -1,-30 -4,-44l21 -3c1,7 1,11 1,13l2 0c5,-10 11,-14 20,-14 3,0 8,1 13,3zm33 94l-22 0c1,-13 2,-29 2,-47 0,-18 -1,-33 -3,-46l23 -3c0,13 -1,29 -1,49 0,17 1,33 1,47zm4 -124c0,4 -1,8 -4,12 -2,3 -6,5 -10,5 -4,0 -7,-2 -9,-5 -2,-3 -3,-6 -3,-10 0,-5 1,-9 3,-12 3,-3 6,-5 11,-5 4,0 7,2 9,4 2,3 3,7 3,11zm88 124l-21 0c1,-17 1,-33 1,-51 0,-10 -1,-17 -3,-21 -3,-3 -7,-5 -12,-5 -6,0 -12,2 -17,7 0,26 0,50 0,70l-22 0c1,-20 2,-37 2,-49 0,-15 -2,-30 -4,-44l20 -3 2 10 1 0c8,-8 16,-11 26,-11 8,0 15,2 20,7 5,5 7,13 7,26 0,2 0,5 0,8 0,3 0,7 0,10 0,9 0,24 0,46zm93 0l-19 1c-1,-2 -1,-5 -1,-7l-1 0c-6,6 -14,9 -23,9 -10,0 -19,-4 -25,-14 -6,-9 -9,-20 -9,-32 0,-15 3,-28 10,-38 7,-11 16,-17 28,-17 8,0 13,2 17,6l1 0c0,-16 0,-32 -2,-47l24 -1c-1,15 -2,37 -2,66 0,30 1,54 2,74zm-20 -22c0,-22 -1,-39 -2,-53 -3,-3 -8,-5 -13,-5 -7,0 -13,4 -16,10 -4,7 -5,15 -5,24 0,8 1,15 5,22 3,6 8,9 14,9 8,0 13,-3 17,-7zm110 22l-19 1c-1,-4 -1,-6 -1,-9l-2 0c-7,8 -15,11 -25,11 -9,0 -15,-3 -20,-8 -4,-6 -7,-18 -7,-35 0,-2 0,-5 0,-8 1,-4 1,-7 1,-10 0,-8 -1,-19 -2,-35l23 -1c-1,12 -2,24 -2,36 0,16 1,27 3,33 2,5 6,8 12,8 6,0 12,-2 17,-6 0,-34 -1,-58 -1,-70l22 -1c-1,12 -1,28 -1,48 0,15 1,30 2,46zm73 -27c0,20 -12,30 -36,30 -9,0 -17,-1 -24,-4l3 -19c7,3 14,4 21,4 6,0 11,0 13,-2 3,-1 4,-3 4,-6 0,-5 -5,-10 -14,-14 -8,-4 -14,-8 -17,-11 -5,-6 -8,-12 -8,-19 0,-9 3,-16 8,-22 6,-5 14,-8 24,-8 9,0 17,1 22,3l-2 20c-6,-3 -13,-4 -20,-4 -9,0 -13,2 -13,8 0,3 1,5 3,7 1,1 5,3 11,6 8,3 13,7 17,11 5,5 8,12 8,20zm63 9l-2 17c-4,2 -8,3 -14,3 -9,0 -16,-3 -20,-8 -5,-6 -7,-17 -7,-34 0,-10 0,-21 0,-34 -2,0 -6,0 -11,1l1 -20c4,0 8,1 11,1 0,-4 1,-13 1,-28l19 -3c0,13 -1,23 -1,31 5,0 12,-1 21,-1l-1 20c-8,-1 -15,-1 -20,-1 0,9 0,18 0,28 0,11 1,19 3,23 2,4 5,6 10,6 3,0 6,0 10,-1zm65 -76l-4 23c-4,-2 -8,-3 -12,-3 -8,0 -14,4 -16,13 0,27 0,47 0,61l-21 0c1,-20 1,-36 1,-49 0,-15 -1,-30 -4,-44l21 -3c1,7 1,11 1,13l1 0c5,-10 12,-14 20,-14 4,0 9,1 13,3zm34 94l-22 0c1,-13 1,-29 1,-47 0,-18 -1,-33 -2,-46l23 -3c-1,13 -1,29 -1,49 0,17 0,33 1,47zm4 -124c0,4 -1,8 -4,12 -2,3 -6,5 -10,5 -4,0 -7,-2 -9,-5 -3,-3 -4,-6 -4,-10 0,-5 2,-9 4,-12 3,-3 6,-5 11,-5 4,0 7,2 9,4 2,3 3,7 3,11zm81 124l-19 1c-1,-3 -2,-5 -2,-8l-1 0c-6,7 -14,10 -24,10 -7,0 -12,-3 -17,-7 -4,-5 -7,-11 -7,-19 0,-10 4,-18 11,-24 7,-7 19,-10 37,-10 0,-2 0,-3 0,-4 0,-7 -2,-12 -5,-14 -2,-2 -8,-3 -15,-3 -8,0 -16,1 -24,4l2 -19c7,-3 18,-4 31,-4 10,0 17,2 23,7 5,5 8,14 8,27 0,2 0,7 -1,15 0,7 0,12 0,14 0,14 1,25 3,34zm-22 -21c0,-8 0,-16 0,-23 -19,0 -28,6 -28,18 0,7 4,11 12,11 6,0 12,-2 16,-6zm111 21l-22 0c2,-17 2,-33 2,-51 0,-10 -1,-17 -4,-21 -2,-3 -6,-5 -11,-5 -6,0 -12,2 -18,7 1,26 1,50 1,70l-22 0c1,-20 1,-37 1,-49 0,-15 -1,-30 -4,-44l21 -3 1 10 2 0c7,-8 16,-11 25,-11 9,0 15,2 20,7 5,5 8,13 8,26 0,2 0,5 0,8 0,3 0,7 0,10 0,9 0,24 0,46zm-780 -220c0,4 0,8 -1,13l-52 2c1,7 3,13 8,18 4,5 10,8 18,8 8,0 16,-2 26,-5l-2 19c-7,4 -17,5 -28,5 -14,0 -25,-4 -32,-14 -7,-10 -11,-21 -11,-35 0,-14 3,-26 10,-36 7,-11 17,-16 30,-16 11,0 20,4 26,12 5,7 8,17 8,29zm-19 -1c0,-15 -5,-23 -16,-23 -10,0 -16,8 -18,24l34 -1zm154 59l-21 0c1,-17 1,-34 1,-49 0,-12 -1,-20 -3,-24 -3,-3 -7,-5 -12,-5 -5,0 -9,2 -14,6 0,8 -1,16 -1,22 0,11 1,28 1,50l-22 0c1,-19 2,-36 2,-53 0,-9 -1,-16 -3,-19 -2,-4 -6,-6 -13,-6 -6,0 -11,2 -15,7 1,26 1,50 1,71l-22 0c1,-21 1,-37 1,-49 0,-16 -1,-31 -4,-45l21 -3 2 11 1 0c7,-8 15,-12 24,-12 11,0 19,4 23,12l1 0c9,-8 16,-12 24,-12 10,0 17,2 21,7 5,5 7,14 7,27 0,1 0,3 0,7 0,3 0,6 0,7 0,11 0,28 0,50zm89 -58c0,4 0,8 0,13l-53 2c1,7 4,13 8,18 5,5 10,8 18,8 8,0 17,-2 26,-5l-2 19c-7,4 -17,5 -28,5 -14,0 -24,-4 -32,-14 -7,-10 -11,-21 -11,-35 0,-14 3,-26 11,-36 7,-11 16,-16 29,-16 12,0 20,4 26,12 5,7 8,17 8,29zm-19 -1c0,-15 -5,-23 -16,-23 -10,0 -16,8 -18,24l34 -1zm107 59l-21 0c1,-17 1,-34 1,-51 0,-11 -1,-18 -3,-21 -3,-4 -7,-6 -12,-6 -6,0 -12,3 -17,8 0,26 0,49 0,70l-22 0c1,-21 2,-37 2,-49 0,-16 -2,-31 -4,-45l20 -3 2 11 1 0c8,-8 16,-12 26,-12 8,0 15,2 20,7 5,5 7,14 7,27 0,2 0,4 0,7 0,4 0,7 0,10 0,9 0,25 0,47zm67 -19l-2 18c-4,2 -8,3 -14,3 -9,0 -15,-3 -20,-9 -4,-6 -7,-17 -7,-34 0,-10 0,-21 1,-34 -3,0 -7,0 -12,1l1 -20c4,1 8,1 12,1 0,-4 0,-13 0,-28l20 -3c-1,13 -2,24 -2,31 5,0 12,0 21,-1l-1 20c-8,-1 -15,-1 -20,-1 0,9 0,18 0,28 0,12 1,20 3,24 2,4 5,6 10,6 3,0 6,-1 10,-2zm83 -39c0,4 -1,8 -1,13l-52 2c0,7 3,13 8,18 4,5 10,8 17,8 9,0 17,-2 26,-5l-1 19c-8,4 -17,5 -28,5 -14,0 -25,-4 -32,-14 -8,-10 -12,-21 -12,-35 0,-14 4,-26 11,-36 7,-11 17,-16 30,-16 11,0 20,4 25,12 6,7 9,17 9,29zm-19 -1c0,-15 -6,-23 -16,-23 -11,0 -17,8 -18,24l34 -1zm87 -36l-5 23c-4,-2 -8,-3 -12,-3 -8,0 -13,5 -16,14 0,26 0,46 1,61l-22 0c1,-20 2,-37 2,-49 0,-16 -2,-31 -5,-45l21 -3c1,7 2,12 2,13l1 0c5,-9 12,-14 20,-14 4,0 8,1 13,3zm34 95l-22 0c0,-14 1,-30 1,-48 0,-17 -1,-33 -3,-46l24 -3c-1,13 -1,29 -1,49 0,17 0,33 1,48zm3 -125c0,5 -1,9 -3,12 -3,3 -6,5 -11,5 -4,0 -7,-1 -9,-4 -2,-3 -3,-7 -3,-11 0,-4 1,-8 4,-12 2,-3 6,-5 10,-5 4,0 7,2 9,5 2,3 3,6 3,10zm81 124l-19 1c-1,-3 -1,-5 -1,-7l-1 0c-6,6 -14,9 -24,9 -7,0 -13,-2 -17,-7 -5,-4 -7,-11 -7,-18 0,-10 3,-19 10,-25 7,-6 20,-10 37,-10 0,-1 0,-3 0,-4 0,-7 -1,-11 -4,-14 -3,-2 -8,-3 -16,-3 -8,0 -16,1 -24,4l2 -18c8,-4 18,-5 31,-5 10,0 18,2 23,7 6,5 8,14 8,27 0,3 0,8 0,15 0,7 0,12 0,15 0,13 1,25 2,33zm-21 -20c-1,-9 -1,-17 -1,-23 -18,0 -28,5 -28,17 0,8 4,12 13,12 6,0 11,-2 16,-6zm111 21l-22 0c1,-17 2,-34 2,-51 0,-11 -2,-18 -4,-21 -3,-4 -6,-6 -12,-6 -6,0 -12,3 -17,8 0,26 0,49 0,70l-22 0c1,-21 2,-37 2,-49 0,-16 -2,-31 -4,-45l21 -3 1 11 1 0c8,-8 16,-12 26,-12 8,0 15,2 20,7 5,5 8,14 8,27 0,2 -1,4 -1,7 0,4 0,7 0,10 0,9 0,25 1,47z"/>
  </g>
 </g>
</svg>
